<svg width="33" height="36" viewBox="0 0 33 36" fill="none" xmlns="http://www.w3.org/2000/svg">
	<circle cx="7" cy="31" r="3" fill="#151515" />
	<circle cx="26" cy="5" r="3" fill="#151515" />
	<path d="M26.3892 3.59114C29.8922 6.45234 32.2098 10.7144 32.8322 15.4398C33.4547 20.1651 32.3309 24.9667 29.7081 28.7882C27.0854 32.6096 23.1785 35.138 18.8469 35.817C14.5153 36.496 10.1139 35.2701 6.61086 32.4089L7.92341 30.4964C10.9615 32.9779 14.7787 34.0411 18.5354 33.4522C22.292 32.8633 25.6804 30.6705 27.9551 27.3563C30.2297 24.042 31.2043 19.8778 30.6645 15.7796C30.1247 11.6814 28.1147 7.98502 25.0766 5.50358L26.3892 3.59114Z" fill="white" />
</svg>