<svg xmlns="http://www.w3.org/2000/svg"><symbol fill="none" id="sprite-button-arrow" viewBox="0 0 24 16"><title>button-arrow</title><path d="M4 8h18m-6-7 7 7-7 7" stroke="#fff" stroke-width="1.5" stroke-linecap="round" stroke-linejoin="round"/></symbol><symbol fill="currentColor" id="sprite-form-checkmark" viewBox="0 0 16 16"><title>form-checkmark</title><path d="M13.854 3.646a.5.5 0 0 1 0 .708l-7 7a.5.5 0 0 1-.708 0l-3.5-3.5a.5.5 0 1 1 .708-.708L6.5 10.293l6.646-6.647a.5.5 0 0 1 .708 0"/></symbol><symbol fill="none" id="sprite-modal-close" viewBox="0 0 32 32"><title>modal-close</title><path d="M22.001 8 16 14l-6-6-2 2 6 6-6 6 2 2 6-6 6.001 6 2-2-6-6 6-6-2-2Z" fill="#F0F0F0"/></symbol><symbol fill="none" id="sprite-rays" viewBox="0 0 57 58"><title>rays</title><path d="m16.027 16.802 9.834 16.016m0 0 3.329 17.1m-3.329-17.1L9.541 50.183m16.32-17.365 18.977-2.956m-18.977 2.956 4.51-28.95m-4.51 28.95L54.655 41M25.86 32.818 19.697 53.26m6.164-20.442L4.005 20.704m21.856 12.114 14.79-16.405M25.86 32.818 9.718 34.88m16.143-2.063L40.74 50.734" stroke="currentColor" stroke-width="2.4"/></symbol><symbol fill="none" id="sprite-ring-back" viewBox="0 0 19 28"><title>ring-back</title><path d="M2.52 27.561C.85 24.656-.023 21.291 0 17.863c.024-3.429.945-6.778 2.655-9.655s4.137-5.161 6.997-6.584A15.263 15.263 0 0 1 18.796.175l-.305 2.366a13.24 13.24 0 0 0-7.93 1.256c-2.48 1.234-4.585 3.215-6.068 5.71-1.483 2.495-2.282 5.4-2.303 8.374-.02 2.974.738 5.892 2.186 8.411l-1.856 1.27Z" fill="#D9D9D9"/></symbol><symbol fill="none" id="sprite-ring-front" viewBox="0 0 33 36"><title>ring-front</title><circle cx="7" cy="31" r="3" fill="#151515"/><circle cx="26" cy="5" r="3" fill="#151515"/><path d="M26.39 3.591c3.502 2.861 5.82 7.123 6.442 11.849.623 4.725-.501 9.527-3.124 13.348-2.623 3.822-6.53 6.35-10.861 7.029-4.332.679-8.733-.547-12.236-3.408l1.312-1.913c3.038 2.482 6.856 3.545 10.612 2.956 3.757-.589 7.145-2.781 9.42-6.096 2.275-3.314 3.25-7.478 2.71-11.576-.54-4.099-2.55-7.795-5.588-10.276l1.312-1.913Z" fill="#fff"/></symbol><symbol fill="none" id="sprite-sale" viewBox="0 0 189 138"><title>sale</title><rect y="97.954" width="187" height="46" rx="23" transform="rotate(-29.454 0 97.954)" fill="#FFEB1C"/><path d="m57.96 95.164 5.475-3.092c.229.275.539.45.93.523.382.06.839.022 1.37-.112.522-.148 1.104-.403 1.745-.765.835-.472 1.436-.922 1.801-1.349.38-.434.463-.84.25-1.216-.14-.25-.391-.385-.75-.403-.367-.031-.978.157-1.831.566l-2.686 1.296c-2.44 1.176-4.424 1.635-5.949 1.375-1.524-.26-2.68-1.086-3.467-2.48-.66-1.17-.877-2.334-.65-3.492.23-1.158.832-2.27 1.81-3.337.992-1.074 2.296-2.068 3.912-2.98 1.574-.89 3.093-1.453 4.557-1.692 1.47-.26 2.784-.194 3.943.199a5.112 5.112 0 0 1 2.761 2.106l-5.475 3.092c-.184-.227-.445-.364-.784-.412-.325-.055-.724-.013-1.197.125-.473.139-1.01.377-1.608.716-.767.432-1.33.851-1.689 1.256-.345.397-.42.77-.223 1.118.134.237.373.368.719.394.359.018.923-.154 1.693-.515l3.032-1.464c1.588-.768 2.957-1.239 4.11-1.411 1.143-.187 2.108-.089 2.894.294.8.375 1.46 1.022 1.98 1.942.652 1.156.881 2.36.686 3.609-.195 1.249-.774 2.467-1.739 3.655-.958 1.166-2.26 2.214-3.904 3.142-1.7.96-3.32 1.572-4.861 1.836-1.542.264-2.91.183-4.107-.244a5.211 5.211 0 0 1-2.748-2.28Zm23.685-10.04-2.42-4.284 10.68-6.03 2.419 4.283-10.68 6.031Zm1.664-18.139 15.726 11.791-5.747 3.246L80.37 71.787l1.38-.779 2.092 16.348-5.746 3.245-1.976-19.556 7.189-4.06Zm14.087-7.955 7.506 13.291-3.794-1.055 11.662-6.585 2.714 4.806-14.629 8.261-8.85-15.673 5.39-3.045Zm28.918-8.447 2.1 3.72-11.807 6.667-2.101-3.72 11.808-6.667Zm-7.058 6.438 2.331 6.374-3.323-1.1 11.891-6.716 2.408 4.263-15.172 8.568-3.276-8.485-5.575-7.188 15.067-8.509 2.408 4.263-11.787 6.656.774-3.413 4.254 5.287Z" fill="#151515"/><circle cx="163" cy="31" r="3" fill="#151515"/><circle cx="182" cy="5" r="3" fill="#151515"/><path d="M182.389 3.591c3.503 2.861 5.821 7.123 6.443 11.849.623 4.725-.501 9.527-3.124 13.348-2.623 3.822-6.53 6.35-10.861 7.029-4.332.679-8.733-.547-12.236-3.408l1.312-1.913c3.038 2.482 6.856 3.545 10.612 2.956 3.757-.589 7.145-2.781 9.42-6.096 2.275-3.314 3.249-7.478 2.71-11.576-.54-4.099-2.55-7.795-5.588-10.276l1.312-1.913Z" fill="#fff"/></symbol><symbol fill="none" id="sprite-star" viewBox="0 0 327 333"><title>star</title><path d="m219.902 194.299 89.284-26.866-99.75-14.878 22.617-110.277-63.993 81.906-79.914-96.347 40.397 118.495-110.975 15.647 118.577 38.272-28.464 122.942 73.998-102.419 73.612 68.45-35.389-94.925Z" stroke="#fff" stroke-width="23.967"/></symbol></svg>